<svg xmlns="http://www.w3.org/2000/svg" style="display:none"><symbol id="add" viewbox="0 0 29 29"><title>Slice 1</title><path d="M21.213 7.071c-3.905-3.905-10.237-3.905-14.142 0-3.905 3.905-3.905 10.237 0 14.142 3.906 3.906 10.237 3.905 14.143 0 3.904-3.905 3.905-10.236 0-14.142zM8.485 19.8A8 8 0 1 1 19.8 8.485 8 8 0 0 1 8.485 19.8zm6.687-4.512c0-.064.051-.115.116-.115h3.06c.562 0 1.018-.457 1.018-1.02l.001-.02a1.02 1.02 0 0 0-1.02-1.02h-3.06a.115.115 0 0 1-.115-.115v-3.06c0-.562-.457-1.02-1.02-1.02h-.019a1.02 1.02 0 0 0-1.02 1.02v3.06a.117.117 0 0 1-.115.116H9.936a1.02 1.02 0 0 0-1.019 1.019l.001.02c0 .563.456 1.02 1.018 1.02h3.062c.063 0 .115.051.115.115v3.06a1.02 1.02 0 0 0 1.018 1.02h.021c.563 0 1.02-.456 1.02-1.02v-3.06z" fill="#6F7882" fill-rule="evenodd"/></symbol><symbol id="close"><path d="M22 1.1L20.9 0 11 9.898 1.1 0 0 1.1 9.9 11 0 20.898 1.1 22l9.9-9.9 9.9 9.9 1.1-1.102L12.1 11 22 1.1z"/></symbol><symbol id="temp-icon-left-arrow" viewbox="0 0 31.494 31.494"><path d="M10.273 5.01a1.117 1.117 0 0 1 1.587 1.57l-8.047 8.047h26.554c.62 0 1.127.492 1.127 1.11 0 .62-.508 1.128-1.127 1.128H3.813l8.047 8.032c.43.444.43 1.16 0 1.587a1.112 1.112 0 0 1-1.587 0L.32 16.532a1.12 1.12 0 0 1 0-1.57l9.953-9.953z" fill="#1E201D"/></symbol><symbol id="temp-icon-right-arrow" viewbox="0 0 31.49 31.49"><path d="M21.205 5.007a1.117 1.117 0 0 0-1.587 1.57l8.047 8.048H1.11c-.618 0-1.11.493-1.11 1.112 0 .62.492 1.127 1.11 1.127h26.555l-8.047 8.032c-.43.444-.43 1.16 0 1.587.444.444 1.16.444 1.587 0l9.952-9.952a1.092 1.092 0 0 0 0-1.57l-9.952-9.95z" fill="#1E201D"/></symbol></svg>