<?xml version="1.0" encoding="UTF-8" standalone="no"?>
<svg width="29px" height="29px" viewBox="0 0 29 29" version="1.1" xmlns="http://www.w3.org/2000/svg" xmlns:xlink="http://www.w3.org/1999/xlink">
    <!-- Generator: Sketch 44 (41411) - http://www.bohemiancoding.com/sketch -->
    <title>Slice 1</title>
    <desc>Created with Sketch.</desc>
    <defs></defs>
    <g id="Page-1" stroke="none" stroke-width="1" fill="none" fill-rule="evenodd">
        <path d="M14.1421356,4.14213562 C8.61896364,4.14213562 4.14213562,8.61976293 4.14213562,14.1416207 C4.14213562,19.6645083 8.61896364,24.1421356 14.1421356,24.1421356 C19.6653076,24.1421356 24.1421356,19.6645083 24.1421356,14.1416207 C24.1421356,8.61976293 19.6653076,4.14213562 14.1421356,4.14213562 L14.1421356,4.14213562 Z M14.1421356,22.1421356 C9.7244901,22.1421356 6.14213562,18.5605915 6.14213562,14.1416135 C6.14213562,9.72367971 9.7244901,6.14213562 14.1421356,6.14213562 C18.5608253,6.14213562 22.1421356,9.72367971 22.1421356,14.1416135 C22.1421356,18.5605915 18.5608253,22.1421356 14.1421356,22.1421356 Z M15.6801134,14.2235436 C15.6343722,14.1789443 15.6343722,14.1057557 15.6801134,14.0600128 L17.843674,11.8963748 C18.2416228,11.4984118 18.2416228,10.8534373 17.843674,10.4554743 L17.8299517,10.4406079 C17.4320029,10.0426449 16.7859079,10.0426449 16.3879591,10.4406079 L14.2243985,12.6042458 C14.1786572,12.6499887 14.1054712,12.6499887 14.0608735,12.6042458 L11.8961694,10.4406079 C11.4993641,10.0426449 10.8532691,10.0426449 10.4553203,10.4406079 L10.441598,10.4543307 C10.0425056,10.8522937 10.0425056,11.4984118 10.4404544,11.8963748 L12.6051586,14.0600128 C12.6497563,14.1057557 12.6497563,14.1789443 12.6051586,14.2235436 L10.4404544,16.3883251 C10.0436492,16.7851445 10.0425056,17.430119 10.4404544,17.8292256 L10.4553203,17.8429485 C10.8532691,18.2409115 11.4982206,18.2420551 11.8961694,17.8440921 L14.0608735,15.6793105 C14.1054712,15.6347112 14.1786572,15.6347112 14.2243985,15.6793105 L16.3879591,17.8440921 C16.7859079,18.2409115 17.4308593,18.2420551 17.8288081,17.8440921 L17.843674,17.8292256 C18.2416228,17.4312626 18.2416228,16.7862881 17.843674,16.3883251 L15.6801134,14.2235436 Z" id="deleteocircle" fill="#6F7882" transform="translate(14.142136, 14.142136) rotate(-315.000000) translate(-14.142136, -14.142136) "></path>
    </g>
</svg>